<?xml version="1.0" encoding="UTF-8" standalone="no"?>
<!DOCTYPE svg PUBLIC "-//W3C//DTD SVG 1.1//EN" "http://www.w3.org/Graphics/SVG/1.1/DTD/svg11.dtd">
<svg width="100%" height="100%" viewBox="0 0 600 400" version="1.1" xmlns="http://www.w3.org/2000/svg" xmlns:xlink="http://www.w3.org/1999/xlink" xml:space="preserve" xmlns:serif="http://www.serif.com/" style="fill-rule:evenodd;clip-rule:evenodd;stroke-linejoin:round;stroke-miterlimit:2;">
    <g id="Layer1">
        <rect x="-1028.23" y="-248.288" width="1712.17" height="4055.19" style="fill:#3d4345;"/>
        <rect x="-13.101" y="-13.059" width="626.202" height="426.201" style="fill:url(#_Radial1);"/>
        <g id="CorelEMF" serif:id="CorelEMF">
        </g>
        <g id="CorelEMF1" serif:id="CorelEMF">
        </g>
        <g>
            <g id="CorelEMF2" serif:id="CorelEMF">
            </g>
        </g>
        <g id="CorelEMF3" serif:id="CorelEMF">
        </g>
        <g id="CorelEMF4" serif:id="CorelEMF">
        </g>
        <path d="M308.596,124.341L303.151,85.011C302.934,83.438 301.588,82.266 300,82.266C298.412,82.266 297.066,83.438 296.849,85.011L290.595,130.186C289.444,128.25 288.037,126.274 286.313,124.254C280.277,117.184 278.587,108.995 279.203,99.034C279.406,95.767 278.431,91.661 276.665,87.608C274.118,81.765 269.96,76.044 266.027,73.15C264.748,72.209 262.97,72.355 261.862,73.492C260.754,74.63 260.654,76.41 261.629,77.664C266.558,84.007 266.866,90.158 265.744,99.248C264.25,111.361 264.182,119.528 269.594,130.185L245.214,98.847C244.239,97.593 242.488,97.251 241.112,98.045C239.737,98.839 239.158,100.527 239.756,101.998L256.927,144.247C254.963,143.146 252.756,142.138 250.253,141.251C241.491,138.146 235.933,131.899 231.486,122.965C230.028,120.034 227.131,116.965 223.575,114.339C218.448,110.552 211.986,107.677 207.133,107.137C205.554,106.961 204.088,107.976 203.697,109.516C203.306,111.055 204.11,112.647 205.581,113.245C213.021,116.274 216.363,121.447 219.937,129.88C224.7,141.117 228.724,148.224 238.74,154.747L201.957,139.797C200.485,139.199 198.798,139.778 198.004,141.154C197.21,142.529 197.552,144.28 198.806,145.255C198.806,145.255 221.279,162.739 234.801,173.259C232.549,173.287 230.134,173.517 227.523,174.001C218.382,175.693 210.445,173.062 202.127,167.548C199.399,165.739 195.355,164.53 190.963,164.033C184.629,163.317 177.595,164.059 173.122,166.017C171.668,166.654 170.906,168.267 171.337,169.795C171.768,171.324 173.26,172.3 174.833,172.083C182.79,170.986 188.271,173.795 195.583,179.311C205.326,186.662 212.365,190.804 224.3,191.445L184.97,196.89C183.397,197.108 182.225,198.453 182.225,200.041C182.225,201.63 183.397,202.975 184.97,203.193C184.97,203.193 213.175,207.097 230.144,209.446C228.209,210.597 226.232,212.004 224.213,213.728C217.143,219.764 208.953,221.454 198.993,220.838C195.726,220.636 191.619,221.61 187.567,223.376C181.724,225.923 176.003,230.082 173.109,234.015C172.167,235.294 172.314,237.071 173.451,238.179C174.589,239.287 176.369,239.387 177.623,238.412C183.966,233.484 190.117,233.176 199.207,234.297C211.32,235.791 219.487,235.859 230.144,230.447L198.806,254.827C197.552,255.802 197.21,257.553 198.004,258.929C198.798,260.304 200.485,260.883 201.957,260.285L244.206,243.114C243.105,245.078 242.097,247.285 241.21,249.788C238.105,258.55 231.858,264.109 222.924,268.555C219.993,270.014 216.924,272.911 214.297,276.466C210.51,281.594 207.636,288.056 207.096,292.909C206.92,294.487 207.935,295.953 209.474,296.344C211.013,296.735 212.605,295.931 213.204,294.46C216.233,287.02 221.406,283.678 229.838,280.104C241.076,275.342 248.183,271.317 254.706,261.301L239.756,298.084C239.158,299.556 239.737,301.243 241.112,302.037C242.488,302.832 244.239,302.49 245.214,301.236L273.217,265.241C273.246,267.492 273.476,269.907 273.96,272.518C275.652,281.659 273.021,289.596 267.507,297.914C265.698,300.643 264.489,304.686 263.992,309.079C263.276,315.412 264.017,322.446 265.976,326.919C266.613,328.374 268.225,329.136 269.754,328.705C271.282,328.274 272.259,326.782 272.042,325.208C270.945,317.251 273.754,311.77 279.27,304.459C286.62,294.715 290.763,287.677 291.404,275.741L296.849,315.071C297.066,316.645 298.412,317.816 300,317.816C301.588,317.816 302.934,316.645 303.151,315.071L309.405,269.897C310.556,271.832 311.963,273.809 313.687,275.829C319.723,282.898 321.413,291.088 320.796,301.048C320.594,304.316 321.569,308.422 323.335,312.474C325.882,318.318 330.04,324.038 333.973,326.933C335.252,327.874 337.03,327.728 338.138,326.59C339.246,325.453 339.345,323.672 338.371,322.418C333.442,316.075 333.134,309.924 334.256,300.834C335.75,288.721 335.818,280.554 330.405,269.897L354.786,301.236C355.761,302.49 357.512,302.832 358.887,302.037C360.263,301.243 360.842,299.556 360.244,298.084C360.244,298.084 349.523,271.706 343.073,255.835C345.037,256.936 347.244,257.945 349.747,258.832C358.509,261.936 364.067,268.184 368.514,277.118C369.972,280.048 372.869,283.117 376.425,285.744C381.552,289.531 388.014,292.406 392.867,292.946C394.446,293.121 395.912,292.106 396.303,290.567C396.694,289.028 395.89,287.436 394.419,286.837C386.979,283.808 383.637,278.635 380.063,270.203C375.3,258.965 371.276,251.859 361.26,245.336L398.043,260.285C399.515,260.883 401.202,260.304 401.996,258.929C402.79,257.553 402.448,255.802 401.194,254.827C401.194,254.827 378.721,237.343 365.199,226.824C367.451,226.795 369.866,226.565 372.477,226.082C381.618,224.389 389.555,227.021 397.873,232.535C400.601,234.343 404.645,235.553 409.037,236.049C415.371,236.765 422.405,236.024 426.878,234.065C428.332,233.428 429.094,231.816 428.663,230.287C428.232,228.759 426.74,227.783 425.167,227.999C417.21,229.096 411.729,226.288 404.417,220.772C394.674,213.421 387.635,209.278 375.7,208.637L415.03,203.193C416.603,202.975 417.775,201.63 417.775,200.041C417.775,198.453 416.603,197.108 415.03,196.89L369.856,190.636C371.791,189.486 373.768,188.079 375.787,186.354C382.857,180.318 391.047,178.628 401.007,179.245C404.274,179.447 408.381,178.473 412.433,176.706C418.276,174.16 423.997,170.001 426.891,166.068C427.832,164.789 427.686,163.012 426.549,161.904C425.411,160.795 423.631,160.696 422.377,161.67C416.034,166.599 409.883,166.907 400.793,165.786C388.68,164.291 380.513,164.223 369.856,169.636L401.194,145.255C402.448,144.28 402.79,142.529 401.996,141.154C401.202,139.778 399.515,139.199 398.043,139.797L355.794,156.968C356.895,155.004 357.903,152.797 358.79,150.294C361.895,141.532 368.142,135.974 377.076,131.527C380.007,130.069 383.076,127.172 385.703,123.616C389.489,118.489 392.364,112.027 392.904,107.174C393.08,105.596 392.065,104.13 390.526,103.739C388.986,103.348 387.395,104.152 386.796,105.622C383.767,113.062 378.594,116.405 370.161,119.978C358.924,124.741 351.817,128.765 345.294,138.781L360.244,101.998C360.842,100.527 360.263,98.839 358.887,98.045C357.512,97.251 355.761,97.593 354.786,98.847L326.783,134.842C326.754,132.591 326.524,130.175 326.04,127.564C324.348,118.423 326.979,110.486 332.493,102.168C334.302,99.44 335.511,95.397 336.008,91.004C336.724,84.67 335.983,77.637 334.024,73.164C333.387,71.709 331.775,70.947 330.246,71.378C328.718,71.809 327.741,73.301 327.958,74.874C329.055,82.832 326.246,88.313 320.73,95.624C313.38,105.367 309.237,112.406 308.596,124.341Z" style="fill:#d26200;"/>
        <path d="M308.121,144.112C310.259,140.045 311.713,134.464 311.69,127.977C311.643,114.579 315.675,107.608 323.27,97.54C329.394,89.423 332.327,83.274 331.11,74.44C334.074,81.209 333.788,94.457 329.842,100.411C323.826,109.485 321.066,118.171 322.912,128.143C324.351,135.912 323.361,141.793 321.531,146.774L357.297,100.8L334.998,155.666C338.882,153.213 342.932,149.106 346.156,143.476C352.814,131.85 359.791,127.829 371.403,122.908C380.765,118.94 386.38,115.082 389.743,106.822C388.925,114.167 382.054,125.497 375.659,128.679C365.912,133.53 359.178,139.673 355.791,149.232C353.153,156.679 349.356,161.278 345.279,164.676L399.241,142.744L352.497,179.11C357.087,178.928 362.648,177.396 368.255,174.133C379.834,167.393 387.887,167.399 400.404,168.943C410.495,170.188 417.287,169.654 424.329,164.182C419.949,170.134 408.333,176.511 401.204,176.069C390.337,175.397 381.434,177.35 373.722,183.935C367.713,189.065 362.125,191.149 356.896,192.054L414.594,200.041L355.929,208.163C359.996,210.3 365.578,211.754 372.065,211.731C385.462,211.684 392.434,215.716 402.501,223.311C410.618,229.435 416.767,232.369 425.601,231.151C418.832,234.115 405.584,233.83 399.631,229.883C390.557,223.867 381.87,221.107 371.898,222.953C364.129,224.392 358.248,223.403 353.267,221.572L399.241,257.338L344.376,235.039C346.829,238.924 350.935,242.974 356.565,246.198C368.191,252.855 372.213,259.833 377.134,271.444C381.101,280.806 384.959,286.421 393.219,289.784C385.875,288.966 374.545,282.095 371.362,275.7C366.511,265.954 360.368,259.22 350.809,255.833C343.362,253.194 338.763,249.397 335.365,245.321L357.297,299.282L320.932,252.538C321.114,257.129 322.645,262.69 325.909,268.296C332.648,279.875 332.642,287.929 331.098,300.445C329.853,310.537 330.387,317.328 335.859,324.37C329.907,319.99 323.531,308.374 323.972,301.245C324.644,290.379 322.691,281.476 316.106,273.763C310.976,267.754 308.892,262.166 307.987,256.937L300,314.635L291.879,255.971C289.741,260.037 288.287,265.619 288.31,272.106C288.357,285.504 284.325,292.475 276.73,302.542C270.606,310.66 267.673,316.808 268.89,325.643C265.926,318.873 266.212,305.626 270.158,299.672C276.174,290.598 278.934,281.911 277.088,271.939C275.649,264.171 276.639,258.289 278.469,253.308L242.703,299.282L265.002,244.417C261.118,246.87 257.067,250.977 253.844,256.606C247.186,268.232 240.209,272.254 228.597,277.175C219.235,281.143 213.62,285.001 210.257,293.26C211.075,285.916 217.946,274.586 224.341,271.403C234.088,266.553 240.822,260.41 244.208,250.851C246.847,243.404 250.644,238.805 254.72,235.407L200.759,257.338L247.503,220.973C242.913,221.155 237.352,222.686 231.745,225.95C220.166,232.69 212.113,232.684 199.596,231.14C189.505,229.895 182.713,230.428 175.671,235.9C180.051,229.948 191.667,223.572 198.796,224.013C209.663,224.686 218.566,222.733 226.278,216.148C232.287,211.018 237.875,208.934 243.104,208.029L185.406,200.041L244.07,191.92C240.004,189.783 234.422,188.328 227.935,188.351C214.538,188.399 207.566,184.367 197.499,176.771C189.382,170.647 183.233,167.714 174.399,168.932C181.168,165.967 194.416,166.253 200.369,170.2C209.443,176.215 218.13,178.975 228.102,177.129C235.871,175.691 241.752,176.68 246.733,178.511L200.759,142.744L255.624,165.043C253.171,161.159 249.065,157.109 243.435,153.885C231.809,147.227 227.787,140.25 222.866,128.638C218.899,119.276 215.041,113.661 206.781,110.299C214.125,111.116 225.455,117.988 228.638,124.382C233.489,134.129 239.632,140.863 249.191,144.25C256.638,146.888 261.237,150.686 264.635,154.762L242.703,100.8L279.068,147.544C278.886,142.954 277.355,137.393 274.091,131.786C267.352,120.207 267.358,112.154 268.902,99.638C270.147,89.546 269.613,82.754 264.141,75.712C270.093,80.093 276.469,91.708 276.028,98.838C275.356,109.704 277.309,118.607 283.894,126.32C289.024,132.328 291.108,137.916 292.012,143.145L300,85.448L308.121,144.112ZM291.096,149.766L282.656,152.156L283.594,153.361L267.777,162.493L267.151,160.954L261.037,167.243L262.452,167.818L253.32,183.635L252.008,182.615L249.858,191.119L251.371,190.909L251.371,209.173L249.725,208.945L252.114,217.385L253.32,216.447L262.452,232.264L260.912,232.89L267.202,239.004L267.777,237.589L283.594,246.721L282.573,248.033L291.078,250.183L290.868,248.67L309.132,248.67L308.904,250.317L317.344,247.927L316.406,246.721L332.223,237.589L332.849,239.129L338.963,232.839L337.548,232.264L346.68,216.447L347.992,217.468L350.142,208.964L348.629,209.173L348.629,190.909L350.275,191.137L347.886,182.697L346.68,183.635L337.548,167.818L339.088,167.193L332.798,161.078L332.223,162.493L316.406,153.361L317.427,152.05L308.922,149.899L309.132,151.412L290.868,151.412L291.096,149.766Z" style="fill:#ffa900;"/>
        <path d="M281.586,251.499L281.69,251.527L289.302,253.452C289.062,253.697 288.854,253.979 288.689,254.294C286.326,258.788 284.681,264.949 284.706,272.119C284.748,284.071 281.214,290.489 274.687,299.259C280.184,290.18 282.489,281.314 280.631,271.283C279.34,264.307 280.208,259.024 281.852,254.552C282.233,253.514 282.109,252.4 281.586,251.499ZM309.886,253.784L317.44,251.645C317.355,251.977 317.316,252.326 317.331,252.681C317.532,257.755 319.187,263.913 322.794,270.109C328.807,280.439 328.954,287.764 327.687,298.623C327.908,288.012 325.471,279.181 318.847,271.423C314.241,266.027 312.351,261.018 311.539,256.323C311.35,255.233 310.685,254.331 309.782,253.812L309.886,253.784ZM305.878,252.274L294.013,252.274C293.882,252.458 293.734,252.63 293.568,252.788C294.571,253.32 295.287,254.309 295.448,255.477C295.448,255.477 300,288.354 300,288.354L304.418,256.443C304.623,254.962 305.711,253.792 307.109,253.442C306.908,253.326 306.716,253.19 306.538,253.035C306.28,252.811 306.059,252.554 305.878,252.274ZM331.207,242.337L320.931,248.27C320.91,248.494 320.868,248.717 320.803,248.937C321.938,248.896 323.052,249.395 323.776,250.325C323.776,250.325 344.157,276.523 344.157,276.523L332.027,246.678C331.464,245.292 331.821,243.735 332.857,242.733C332.625,242.733 332.391,242.712 332.159,242.666C331.824,242.601 331.504,242.489 331.207,242.337ZM268.698,242.283C268.494,242.376 268.279,242.451 268.057,242.505C268.659,243.467 268.785,244.682 268.341,245.774C268.341,245.774 255.843,276.523 255.843,276.523L275.625,251.095C276.543,249.915 278.07,249.446 279.457,249.842C279.34,249.641 279.242,249.428 279.165,249.204C279.054,248.881 278.991,248.548 278.974,248.215L268.698,242.283ZM258.324,235.398L258.4,235.474L264.03,240.947C263.699,241.039 263.379,241.18 263.078,241.37C258.785,244.081 254.279,248.593 250.716,254.815C244.777,265.188 238.507,268.978 228.47,273.31C237.769,268.196 244.198,261.67 247.605,252.054C249.975,245.367 253.368,241.226 257.028,238.175C257.877,237.467 258.326,236.44 258.324,235.398ZM335.433,241.641L340.906,236.011C340.998,236.342 341.139,236.663 341.329,236.964C344.04,241.257 348.552,245.762 354.774,249.325C365.146,255.264 368.937,261.534 373.269,271.571C368.155,262.272 361.628,255.843 352.013,252.436C345.326,250.067 341.185,246.673 338.133,243.013C337.426,242.164 336.398,241.715 335.357,241.717L335.433,241.641ZM349.801,220.585C349.6,220.701 349.387,220.799 349.163,220.876C348.84,220.987 348.507,221.05 348.174,221.067L342.241,231.343C342.335,231.547 342.41,231.762 342.464,231.984C343.426,231.382 344.64,231.257 345.733,231.701C345.733,231.701 376.481,244.198 376.481,244.198L351.054,224.416C349.874,223.498 349.405,221.971 349.801,220.585ZM251.105,220.845C251.145,221.979 250.647,223.093 249.716,223.817C249.716,223.817 223.519,244.198 223.519,244.198L253.364,232.068C254.749,231.505 256.306,231.862 257.309,232.898C257.308,232.666 257.33,232.433 257.375,232.2C257.44,231.865 257.552,231.545 257.704,231.248L251.771,220.973C251.547,220.951 251.324,220.909 251.105,220.845ZM246.229,209.823L246.257,209.927L248.396,217.482C248.064,217.396 247.716,217.358 247.36,217.372C242.287,217.573 236.129,219.228 229.932,222.835C219.602,228.848 212.277,228.996 201.419,227.729C212.029,227.949 220.86,225.512 228.618,218.888C234.014,214.282 239.023,212.392 243.719,211.58C244.808,211.391 245.71,210.726 246.229,209.823ZM351.486,218.351L353.41,210.739C353.655,210.98 353.938,211.187 354.253,211.353C358.747,213.715 364.908,215.36 372.077,215.335C384.03,215.293 390.447,218.827 399.218,225.354C390.139,219.858 381.272,217.553 371.242,219.41C364.266,220.702 358.983,219.833 354.51,218.189C353.473,217.808 352.359,217.932 351.458,218.455L351.486,218.351ZM247.254,193.61C246.722,194.612 245.733,195.328 244.565,195.49C244.565,195.49 211.687,200.041 211.687,200.041L243.598,204.459C245.08,204.664 246.249,205.752 246.6,207.151C246.715,206.949 246.851,206.758 247.006,206.579C247.231,206.322 247.487,206.1 247.767,205.919L247.767,194.054C247.584,193.924 247.412,193.775 247.254,193.61ZM353.4,192.932C353.285,193.133 353.149,193.325 352.994,193.503C352.769,193.761 352.513,193.982 352.233,194.163L352.233,206.029C352.416,206.159 352.588,206.307 352.746,206.473C353.278,205.47 354.267,204.754 355.435,204.593C355.435,204.593 388.313,200.041 388.313,200.041L356.402,195.624C354.92,195.419 353.751,194.33 353.4,192.932ZM398.581,172.354C387.971,172.133 379.14,174.57 371.382,181.194C365.986,185.801 360.977,187.69 356.281,188.503C355.192,188.691 354.29,189.356 353.771,190.259L353.743,190.155L351.604,182.601C351.936,182.686 352.284,182.725 352.64,182.711C357.713,182.509 363.871,180.854 370.068,177.247C380.398,171.235 387.723,171.087 398.581,172.354ZM200.782,174.729C209.861,180.225 218.728,182.53 228.758,180.673C235.734,179.381 241.017,180.249 245.49,181.893C246.527,182.275 247.641,182.15 248.542,181.627L248.514,181.731L246.59,189.343C246.345,189.103 246.062,188.896 245.747,188.73C241.253,186.368 235.092,184.722 227.922,184.747C215.97,184.79 209.553,181.255 200.782,174.729ZM257.536,168.098C256.574,168.7 255.36,168.826 254.267,168.382C254.267,168.382 223.519,155.885 223.519,155.885L248.946,175.666C250.126,176.585 250.595,178.112 250.199,179.498C250.4,179.381 250.613,179.283 250.837,179.206C251.16,179.095 251.493,179.032 251.826,179.015L257.759,168.74C257.665,168.535 257.59,168.321 257.536,168.098ZM348.895,179.238C348.855,178.104 349.353,176.989 350.284,176.265C350.284,176.265 376.481,155.885 376.481,155.885L346.636,168.015C345.251,168.578 343.694,168.22 342.691,167.184C342.692,167.416 342.67,167.65 342.625,167.882C342.56,168.218 342.448,168.538 342.296,168.834L348.229,179.11C348.453,179.131 348.676,179.174 348.895,179.238ZM371.53,126.773C362.231,131.887 355.802,138.413 352.395,148.028C350.025,154.716 346.632,158.857 342.972,161.908C342.123,162.616 341.674,163.643 341.676,164.685L341.6,164.608L335.97,159.136C336.301,159.043 336.621,158.903 336.922,158.713C341.215,156.002 345.721,151.489 349.284,145.267C355.223,134.895 361.493,131.105 371.53,126.773ZM226.731,128.511C231.845,137.81 238.372,144.24 247.987,147.647C254.674,150.016 258.815,153.409 261.867,157.069C262.574,157.918 263.602,158.368 264.643,158.366L264.567,158.441L259.094,164.071C259.002,163.741 258.861,163.42 258.671,163.119C255.96,158.826 251.448,154.321 245.226,150.758C234.854,144.818 231.063,138.548 226.731,128.511ZM331.943,157.577C331.341,156.615 331.215,155.401 331.659,154.309C331.659,154.309 344.157,123.56 344.157,123.56L324.375,148.987C323.457,150.167 321.93,150.636 320.543,150.241C320.66,150.441 320.758,150.655 320.835,150.878C320.946,151.202 321.009,151.534 321.026,151.867L331.302,157.8C331.506,157.706 331.721,157.632 331.943,157.577ZM279.197,151.146C278.062,151.186 276.948,150.688 276.224,149.757C276.224,149.757 255.843,123.56 255.843,123.56L267.973,153.405C268.536,154.79 268.179,156.347 267.143,157.35C267.375,157.349 267.609,157.371 267.841,157.416C268.176,157.482 268.496,157.593 268.793,157.745L279.069,151.813C279.09,151.589 279.132,151.365 279.197,151.146ZM325.313,100.824C319.816,109.902 317.511,118.769 319.369,128.799C320.66,135.775 319.792,141.058 318.148,145.531C317.767,146.568 317.891,147.683 318.414,148.584L318.31,148.556L310.698,146.631C310.938,146.386 311.146,146.103 311.311,145.789C313.674,141.294 315.319,135.134 315.294,127.964C315.252,116.011 318.786,109.594 325.313,100.824ZM272.313,101.46C272.092,112.07 274.529,120.902 281.153,128.66C285.759,134.055 287.649,139.064 288.461,143.76C288.65,144.849 289.315,145.752 290.218,146.271L290.114,146.298L282.56,148.437C282.645,148.105 282.684,147.757 282.669,147.401C282.468,142.328 280.813,136.17 277.206,129.973C271.193,119.643 271.046,112.318 272.313,101.46ZM306.431,147.295C305.429,146.763 304.713,145.774 304.551,144.606C304.551,144.606 300,111.728 300,111.728L295.582,143.64C295.377,145.121 294.289,146.29 292.891,146.641C293.092,146.756 293.283,146.892 293.462,147.048C293.72,147.272 293.941,147.529 294.122,147.808L305.987,147.808C306.118,147.625 306.266,147.453 306.431,147.295Z" style="fill:#ffe065;"/>
        <circle cx="300" cy="200.041" r="57.856" style="fill:#d26200;"/>
        <circle cx="300" cy="200.041" r="54.838" style="fill:#ffa900;"/>
        <path d="M250.535,172.536C249.994,181.019 263.728,172.385 280.824,174.427C287.573,175.233 291.816,180.066 293.963,191.637C294.524,194.663 287.813,184.825 285.863,186.563C278.631,193.009 264.16,194.333 252.009,186.397C250.177,185.2 245.603,188.705 244.229,189.848C243.118,190.772 250.7,169.95 250.535,172.536ZM253.954,183.557C256.719,180.111 263.13,177.751 269.634,177.522C276.137,177.293 282.732,179.194 285.863,184.272C279.356,184.088 260.517,185.643 253.954,183.557Z" style="fill:#d26200;"/>
        <path d="M349.465,172.536C350.006,181.019 336.272,172.385 319.176,174.427C312.427,175.233 308.184,180.066 306.037,191.637C305.476,194.663 312.187,184.825 314.137,186.563C321.369,193.009 335.84,194.333 347.991,186.397C349.823,185.2 354.397,188.705 355.77,189.848C356.882,190.772 349.3,169.95 349.465,172.536ZM346.045,183.557C343.281,180.111 336.87,177.751 330.366,177.522C323.863,177.293 317.268,179.194 314.137,184.272C320.644,184.088 339.483,185.643 346.045,183.557Z" style="fill:#d26200;"/>
        <path d="M300,222.727C308.072,215.517 318.086,223.161 327.529,222.089C325.944,229.447 274.664,229.41 272.471,222.089C281.914,223.161 291.928,215.517 300,222.727Z" style="fill:#d26200;"/>
        <path d="M300,234.359C305.803,234.359 310.514,232.986 310.514,235.813C310.514,238.641 305.803,241.79 300,241.79C294.197,241.79 289.486,238.641 289.486,235.813C289.486,232.986 294.197,234.359 300,234.359Z" style="fill:#d26200;"/>
        <path d="M300,216.428C296.513,216.428 290.933,211.356 290.933,210.347C290.933,207.957 294.996,208.238 300,208.238C305.004,208.238 309.067,207.957 309.067,210.347C309.067,211.356 303.487,216.428 300,216.428Z" style="fill:#d26200;"/>
        <path d="M299.867,257C288.506,255.961 271.132,250.505 266.663,243.573C275.295,250.228 288.552,252.003 300,252.277C311.448,252.003 324.705,250.228 333.337,243.573C328.85,250.532 311.357,256.004 300,257.012L299.867,257Z" style="fill:#d26200;"/>
        <path d="M271.007,195.577C278.362,196.58 284.399,196.921 283.949,200.218C282.818,208.504 254.894,214.19 256.597,201.702C257.047,198.405 263.652,194.573 271.007,195.577Z" style="fill:#ffe065;"/>
        <path d="M328.992,195.577C321.637,196.58 315.601,196.921 316.051,200.218C317.182,208.504 345.106,214.19 343.403,201.702C342.953,198.405 336.347,194.573 328.992,195.577Z" style="fill:#ffe065;"/>
        <path d="M300,194.234C302.616,194.234 304.74,200.587 304.74,203.581C304.74,206.574 302.616,207.343 300,207.343C297.384,207.343 295.26,206.574 295.26,203.581C295.26,200.587 297.384,194.234 300,194.234Z" style="fill:#ffe065;"/>
        <path d="M300.177,145.204C316.031,145.255 330.31,152.047 340.293,162.859C329.733,156.66 315.565,152.865 300,152.865C284.435,152.865 270.267,156.66 259.707,162.859C269.693,152.045 283.971,145.254 299.823,145.204L300,145.204L300.177,145.204Z" style="fill:#ffe065;"/>
        <path d="M300,228.465C303.282,228.465 305.947,229.085 305.947,230.53C305.947,231.976 303.282,233.703 300,233.703C296.718,233.703 294.053,231.976 294.053,230.53C294.053,229.085 296.718,228.465 300,228.465Z" style="fill:#ffe065;"/>
    </g>
    <defs>
        <radialGradient id="_Radial1" cx="0" cy="0" r="1" gradientUnits="userSpaceOnUse" gradientTransform="matrix(2.19595e-14,-366.128,358.626,2.24189e-14,300,200.041)"><stop offset="0" style="stop-color:#fff;stop-opacity:1"/><stop offset="1" style="stop-color:#eee;stop-opacity:1"/></radialGradient>
    </defs>
</svg>
